<svg xmlns="http://www.w3.org/2000/svg" viewBox="0 0 1200 800"><defs><style>.cls-1{fill:#fffaf5;}.cls-2{font-size:48px;}.cls-11,.cls-14,.cls-2,.cls-6{fill:#444242;}.cls-2,.cls-6{font-family:Montserrat-Medium, Montserrat Medium;font-weight:500;}.cls-3{letter-spacing:0em;}.cls-4{letter-spacing:0em;}.cls-5{letter-spacing:0em;}.cls-11,.cls-6{font-size:20.43px;}.cls-7{letter-spacing:0em;}.cls-8{letter-spacing:0em;}.cls-9{letter-spacing:0.01em;}.cls-10{letter-spacing:0em;}.cls-11{font-family:Montserrat-LightItalic, Montserrat LightItalic;font-weight:300;font-style:italic;}.cls-12{letter-spacing:-0.01em;}.cls-13{letter-spacing:-0.01em;}.cls-15{fill:#ff4a4a;}.cls-16{fill:none;stroke:#444242;stroke-miterlimit:10;}</style></defs><g id="BACKGROUND"><rect class="cls-1" width="1200" height="800"/></g><g id="OBJECTS"><text class="cls-2" transform="translate(905.16 774.74)"><tspan class="cls-3">G</tspan><tspan x="31.25" y="0">eomet</tspan><tspan class="cls-4" x="161.61" y="0">r</tspan><tspan class="cls-5" x="177.5" y="0">ic</tspan></text><text class="cls-6" transform="translate(84.81 755.92)"><tspan class="cls-7">A</tspan><tspan x="12.44" y="0">bst</tspan><tspan class="cls-8" x="38.92" y="0">r</tspan><tspan x="45.5" y="0">a</tspan><tspan class="cls-9" x="55.34" y="0">c</tspan><tspan class="cls-10" x="64.76" y="0">t</tspan></text><text class="cls-11" transform="translate(84.26 774.11)">Back<tspan class="cls-12" x="39.65" y="0">g</tspan><tspan class="cls-13" x="50.95" y="0">r</tspan><tspan class="cls-10" x="57.43" y="0">oun</tspan><tspan class="cls-13" x="91.24" y="0">d</tspan><tspan x="102.55" y="0">.</tspan></text><rect class="cls-14" x="432.96" y="30.99" width="334.08" height="222.56"/><path class="cls-14" d="M670,266.71a111.28,111.28,0,1,0,0,222.56Z"/><path class="cls-14" d="M195.89,31a111.29,111.29,0,0,0,0,222.57H307.17V142.28A111.41,111.41,0,0,0,195.89,31Z"/><path class="cls-14" d="M1004.11,726.34a111.28,111.28,0,1,0,0-222.56H892.83V615.06A111.41,111.41,0,0,0,1004.11,726.34Z"/><path class="cls-14" d="M766.92,266.7a111.29,111.29,0,0,0,0,222.57H878.2V378A111.41,111.41,0,0,0,766.92,266.7Z"/><path class="cls-14" d="M84.61,378a111.28,111.28,0,0,0,222.56,0V266.71H195.89A111.41,111.41,0,0,0,84.61,378Z"/><path class="cls-14" d="M84.61,615.06a111.28,111.28,0,1,0,222.56,0V503.78H195.89A111.41,111.41,0,0,0,84.61,615.06Z"/><path class="cls-14" d="M433,489.27a111.29,111.29,0,0,0,0-222.57H321.68V378A111.41,111.41,0,0,0,433,489.27Z"/><path class="cls-14" d="M433,31a111.29,111.29,0,0,1,0,222.57H321.68V142.28A111.41,111.41,0,0,1,433,31Z"/><rect class="cls-14" x="892.83" y="142.28" width="222.56" height="346.99"/><path class="cls-14" d="M1115.39,142.28a111.28,111.28,0,0,1-222.56,0V31h111.28A111.41,111.41,0,0,1,1115.39,142.28Z"/><rect class="cls-14" x="428.48" y="503.78" width="338.56" height="222.56"/><path class="cls-14" d="M767,726.34a111.28,111.28,0,1,1,0-222.56H878.32V615.06A111.41,111.41,0,0,1,767,726.34Z"/><circle class="cls-15" cx="767.04" cy="142.28" r="111.28" transform="translate(124.06 584.05) rotate(-45)"/><circle class="cls-15" cx="432.96" cy="615.06" r="111.28" transform="translate(-308.1 486.29) rotate(-45)"/><rect class="cls-14" x="670.03" y="266.71" width="97.01" height="222.56"/><rect class="cls-14" x="321.68" y="334.64" width="106.8" height="154.53"/><rect class="cls-14" x="84.61" y="615.06" width="222.56" height="111.28" transform="translate(391.78 1341.4) rotate(180)"/><line class="cls-16" x1="245.33" y1="774.11" x2="827.94" y2="774.11"/></g></svg>